<?xml version="1.0" encoding="UTF-8"?>
<svg data-bbox="-0.5 -0.5 391 367" height="367" width="391" xmlns="http://www.w3.org/2000/svg" shape-rendering="geometricPrecision" text-rendering="geometricPrecision" image-rendering="optimizeQuality" fill-rule="evenodd" clip-rule="evenodd" data-type="ugc">
    <g>
        <path d="M-.5-.5h391v367H-.5z" fill="#000000"/>
        <path d="M200.5 68.5q10.231-1.732 21-.5 2.73.3 4 2.5-2.872.426-5-1-9.719-1.485-20-1" fill="#333333"/>
        <path d="M200.5 68.5q10.281-.485 20 1-15.528-.15-31 1 5.17-1.78 11-2" fill="#a3a3a3"/>
        <path d="M220.5 69.5q2.128 1.426 5 1h1q6.003 3.165 13 4 2.3 2.618 6 3 14.231 7.72 25 20 .357 2.856 3 4 3.483 1.953 4 6-.11 2.29 2 3-.11 2.29 2 3-.042 6.382 4 11a115 115 0 0 0 3 9 328 328 0 0 1 1 28h9a63.2 63.2 0 0 1 17 4q.71 2.11 3 2 .512 1.257 2 1 .71 2.11 3 2 2.116 3.621 6 5l2 4q.87 3.373 4 5-.11 2.29 2 3-.127 4.724 3 8-.361 3.597 2 6v18q-2.361 2.403-2 6-2.831 3.433-4 8-2.11.71-2 3-1.258.513-1 2-2.643 1.144-3 4a156 156 0 0 1-13 10q-3.7.382-6 3a87 87 0 0 0-8 2 190 190 0 0 0-2 12q-2.347 3.014-3 7-2.11.71-2 3-2.11.71-2 3-8.325 9.83-21 12-25.005.25-50-.5a17.8 17.8 0 0 0-7-1.5q-.71-2.11-3-2-10.589-5.61-15-17-.444-2.855-2-5-1.303-3.325-1-7h-6a41.5 41.5 0 0 1-1 8q-2.542 3.595-4 8-6.12 10.116-17 15a54 54 0 0 1-8 2 883 883 0 0 1-54-1q-3.478-.738-6-3-1.627-3.13-5-4a30.6 30.6 0 0 1-7-8q.11-2.29-2-3v-1q.67-3.765-2-6v-2a36.9 36.9 0 0 0-1-12 9.1 9.1 0 0 0-5-1q-1.1-1.812-1-4-4.927.435-9-2a60.9 60.9 0 0 1-16-16 3320 3320 0 0 0-7-14 119 119 0 0 1-1.5-32 50.4 50.4 0 0 1 5.5-14q2.11-.71 2-3 2.11-.71 2-3 2.643-1.144 3-4 .5-1.5 2-2 5.4-2.895 9-8 2.47-2.74 6-4 2.29.11 3-2l6-2q5.493-.335 10-3 9.935-1.882 20 0 4.362 3.157 10 3 2.127 2.712 6 2v-13q2.665-4.507 3-10 3.501-2.514 3-7l2-4q2.11-.71 2-3 2.11-.71 2-3 3.471-3.495 6-8 2-3 5-5 5.4-2.895 9-8 4.725-4.619 11-7 2.29.11 3-2h2a86.7 86.7 0 0 0 14-5 369 369 0 0 1 31-1" fill="#f6f8f8"/>
        <path d="M226.5 70.5q6.997.835 13 4-6.997-.835-13-4" fill="#7f7f7f"/>
        <path d="M189.5 70.5a86.7 86.7 0 0 1-14 5q6.195-4.235 14-5" fill="#949494"/>
        <path d="M173.5 75.5q-.71 2.11-3 2 .71-2.11 3-2" fill="#6e6e6e"/>
        <path d="M239.5 74.5q3.7.382 6 3-3.7-.382-6-3" fill="#6a6a6a"/>
        <path d="M219.5 81.5q-12.51-.25-25 .5-3.981 1.41-8 2.5h-2q17.02-7.78 35-3" fill="#7be2d5"/>
        <path d="M210.5 82.5q10.539.63 21 2l6 1.5q17.597 9.288 29 25.5a146 146 0 0 1 4.5 16l1-2q.36 3.528 2.5 6 .692 6.014-2.5 11-7.036-4.666-10.5-12a4.93 4.93 0 0 1-3-.5L242 113.5q-.684-1.866 1.5-2.5-6.73-.652-10-6.5-1.783-1.393-4-1v-5a204 204 0 0 0-9-3.5l4-1a14.7 14.7 0 0 1-5-1.5q-.936-3.38-4-5l4-2q-4.835-1.029-9-3" fill="#13f6d1"/>
        <path d="M219.5 81.5q6.582-.172 12 3a299 299 0 0 0-21-2q-8.555-.188-17 1-.255 1.983 1 3.5 6.63 1.294 13 3.5-3.276-.912-6 2a3.65 3.65 0 0 1-1.5-1 6.98 6.98 0 0 1-2.5 3.5q3.843-.525 7.5-2.5 2.138 1.068 4.5.5 3.061 3.771 5.5 9.5a3.65 3.65 0 0 1 1.5-1q4.718 3.435 6.5 9 1.436-3.314 3.5.5-3.103.486-1 2.5 5.176.429 6 5.5l4 1q2.5 4.5 7 7-1.426 1.077-.5 2.5 5.154.9 5.5 6a8.4 8.4 0 0 1 4 .5q2.5 4.5 7 7-1.655 2.52 1 4.5a153 153 0 0 1 12.5 9 23 23 0 0 0 2-5l1 6q1.663-3.45 1.5-7.5a157 157 0 0 0-2-18.5q-2.14-2.472-2.5-6l-1 2a146 146 0 0 0-4.5-16q4.998 8.24 9 17.5a15.9 15.9 0 0 1 1 6.5q2.333 16.157-1 32v1q-1.46 1.936-3 0a6.8 6.8 0 0 0-1.5 3 7154 7154 0 0 0-71.5-72q-2.873-2.356-3-6-5.765 1.088-8-4-3.094-1.914-7-2.5a39 39 0 0 0 5-2.5q4.019-1.09 8-2.5 12.49-.75 25-.5" fill="#11e9d1"/>
        <path d="M210.5 82.5q4.165 1.971 9 3l-4 2q3.064 1.62 4 5a14.7 14.7 0 0 0 5 1.5l-4 1a204 204 0 0 1 9 3.5v5q2.217-.393 4 1 3.27 5.848 10 6.5-2.184.634-1.5 2.5l16.5 16.5a4.93 4.93 0 0 0 3 .5q3.464 7.334 10.5 12 3.192-4.986 2.5-11a157 157 0 0 1 2 18.5q.163 4.05-1.5 7.5l-1-6a23 23 0 0 1-2 5 153 153 0 0 0-12.5-9q-2.655-1.98-1-4.5-4.5-2.5-7-7a8.4 8.4 0 0 0-4-.5q-.346-5.1-5.5-6-.926-1.423.5-2.5-4.5-2.5-7-7l-4-1q-.824-5.071-6-5.5-2.103-2.014 1-2.5-2.064-3.814-3.5-.5-1.782-5.565-6.5-9a3.65 3.65 0 0 0-1.5 1q-2.439-5.729-5.5-9.5-2.362.568-4.5-.5-3.657 1.975-7.5 2.5a6.98 6.98 0 0 0 2.5-3.5q.621.685 1.5 1 2.724-2.912 6-2a96 96 0 0 0-13-3.5q-1.255-1.517-1-3.5a105 105 0 0 1 17-1" fill="#03f0d1"/>
        <path d="M159.5 84.5q-3.6 5.105-9 8 3.6-5.105 9-8" fill="#c5c5c5"/>
        <path d="M184.5 84.5h2a39 39 0 0 1-5 2.5q3.906.586 7 2.5-5.659 4.49-12.5 2a4.93 4.93 0 0 0-.5 3q2.217-.393 4 1a3.65 3.65 0 0 1-1 1.5 644 644 0 0 1 14.5 11.5q.724 1.422.5 3 6.755 1.104 8 8 6.415 1.919 9 8 1.763-.329 3 1a51.3 51.3 0 0 0 12 12q1.329 1.237 1 3 1.763-.329 3 1a51.3 51.3 0 0 0 12 12q1.329 1.237 1 3a21.1 21.1 0 0 1 9 1 22.5 22.5 0 0 0-3 4q-1.393-1.783-1-4-4.147.447-7.5 3-1.077-1.426-2.5-.5 3.693 1.824 8 2 1.129 1.006 1 2.5a12.15 12.15 0 0 0-7-.5 357 357 0 0 0-9-5 3.65 3.65 0 0 0 1-1.5 10.8 10.8 0 0 1-2.5-3 2175 2175 0 0 0-10.5-7 134 134 0 0 0-9-12.5q-1.423-.926-2.5.5-6.97-4.985-10-13l-3.5-3.5q-1.423-.926-2.5.5-3.76-3.505-7.5-7a6.85 6.85 0 0 1-1-4q-3.49.38-6-2-1.06-3.894 0-7-3.673.72-6.5 3-.414-4.272 3.5-6.5l-3-1.5a38 38 0 0 0-6 5 28 28 0 0 0-4-1.5q4.163-3.691 9-6a134 134 0 0 1 10-9.5 20.7 20.7 0 0 0 5-1" fill="#04ddd1"/>
        <path d="M246.5 167.5q6.093.336 8.5 6 5.363-2.382 3.5 3-2.086-1.718-4 0 1.237 1.329 3 1 .61 9.824 3 0 2.018 1.27 3 3.5a4.93 4.93 0 0 0 3 .5q-.531 3.061 0 5.5a39.8 39.8 0 0 1 11 .5q2.148.35 1.5 2-2.241-1.87-4.5 0a14.7 14.7 0 0 0 5 1.5l-1 1a12.9 12.9 0 0 0 5 .5v3q-10.409-4.873-22-4.5-11.25-25.206-37-14.5-.657.098-1-.5 2.504-2.503 6-2.5v-3a9.86 9.86 0 0 1-6-1q1.575-2.403-2-2.5a82.4 82.4 0 0 0-21.5-21.5q-3.25-7.25-10.5-10.5a82.4 82.4 0 0 0-21.5-21.5l-.5-1a20.2 20.2 0 0 1 6-1.5 23.6 23.6 0 0 0-1-3.5q-1.505 3.063-4 1a39 39 0 0 1-7 1.5q2.083 1.333-.5 1.5-4.014-2.514-1-6 4.132.852 7.5-2.5a4.93 4.93 0 0 0-3-.5 38 38 0 0 1 6-5l3 1.5q-3.914 2.228-3.5 6.5 2.827-2.28 6.5-3-1.06 3.106 0 7 2.51 2.38 6 2a6.85 6.85 0 0 0 1 4q3.74 3.495 7.5 7 1.077-1.426 2.5-.5l3.5 3.5q3.03 8.015 10 13 1.077-1.426 2.5-.5a134 134 0 0 1 9 12.5q5.157 3.416 10.5 7a10.8 10.8 0 0 0 2.5 3 3.65 3.65 0 0 1-1 1.5 357 357 0 0 1 9 5 12.15 12.15 0 0 1 7 .5" fill="#0ed8d1"/>
        <path d="M270.5 97.5q2.643 1.144 3 4-2.643-1.144-3-4" fill="#9b9e9c"/>
        <path d="M145.5 97.5q-2.529 4.505-6 8 1.28-5.28 6-8" fill="#989998"/>
        <path d="M139.5 105.5q.11 2.29-2 3-.11-2.29 2-3" fill="#949494"/>
        <path d="M179.5 85.5a134 134 0 0 0-10 9.5q-4.837 2.309-9 6 2.101.615 4 1.5a4.93 4.93 0 0 1 3 .5q-3.368 3.352-7.5 2.5-3.014 3.486 1 6 2.583-.167.5-1.5a39 39 0 0 0 7-1.5q2.495 2.063 4-1 .66 1.797 1 3.5a20.2 20.2 0 0 0-6 1.5l.5 1q12.75 8.75 21.5 21.5 7.25 3.25 10.5 10.5 12.75 8.75 21.5 21.5 3.575.097 2 2.5a9.86 9.86 0 0 0 6 1v3q-3.496-.003-6 2.5.343.598 1 .5l-1 2-2 1q-1.73-1.22 0-3-1.298-1.624-3-.5l1 1a4.93 4.93 0 0 1-3 .5 4.93 4.93 0 0 1-.5 3 11.5 11.5 0 0 0-3.5-4.5q1.415-6.188-4.5-9.5a3.65 3.65 0 0 1-1.5 1q-3-4-7-7 1.44-1.969-.5-4l-7-6a3.65 3.65 0 0 1-1.5 1q-3-4-7-7a3.65 3.65 0 0 1 1-1.5l-6-7q-2.031-1.94-4-.5a36.4 36.4 0 0 0-9-8.5q2.305-1.665 2-4.5a4.93 4.93 0 0 1-3-.5 32.4 32.4 0 0 0-4-5.5q-1.329 1.238-1 3-7.829.89-2-3-2-2 0-4a9.86 9.86 0 0 0-6-1q-1.084 4.28-1 8h-3a83 83 0 0 0 5-12 49.6 49.6 0 0 1 10-11.5q7.629-6.807 17-10.5" fill="#12d1d1"/>
        <path d="M277.5 107.5q2.11.71 2 3-2.11-.71-2-3" fill="#959595"/>
        <path d="M137.5 108.5q.11 2.29-2 3-.11-2.29 2-3" fill="#717171"/>
        <path d="M279.5 110.5q2.11.71 2 3-2.11-.71-2-3" fill="#717372"/>
        <path d="M221.5 179.5q-4.47 6.422-6 14-1.853-.332-3-2-1.428 2.318-1 5-4.144-4.496 1.5-8 1.197-2.639-.5-5-2.153 2.851-5 1a35 35 0 0 1-6-8q-5.458-2.458-8-8l-4-2-12-14q-5.458-2.458-8-8-5.458-2.458-8-8-7.936-2.827-10.5-11-1.088 2.487-3.5 1.5a26.6 26.6 0 0 1 2-3.5q1.344 1.509 2 0a6.85 6.85 0 0 1-1-4q-.084-3.72 1-8a9.86 9.86 0 0 1 6 1q-2 2 0 4-5.829 3.89 2 3-.329-1.762 1-3a32.4 32.4 0 0 1 4 5.5 4.93 4.93 0 0 0 3 .5q.305 2.835-2 4.5a36.4 36.4 0 0 1 9 8.5q1.969-1.44 4 .5l6 7a3.65 3.65 0 0 0-1 1.5q4 3 7 7a3.65 3.65 0 0 0 1.5-1l7 6q1.94 2.031.5 4 4 3 7 7a3.65 3.65 0 0 0 1.5-1q5.915 3.312 4.5 9.5a11.5 11.5 0 0 1 3.5 4.5 4.93 4.93 0 0 0 .5-3 4.93 4.93 0 0 0 3-.5l-1-1q1.702-1.124 3 .5-1.73 1.78 0 3" fill="#05cad2"/>
        <path d="M133.5 115.5q.501 4.486-3 7 .653-3.986 3-7" fill="#979a96"/>
        <path d="M281.5 113.5a46.4 46.4 0 0 1 4 11q-4.042-4.618-4-11" fill="#b8b6b7"/>
        <path d="M152.5 107.5a83 83 0 0 1-5 12h3a6.85 6.85 0 0 0 1 4q-.656 1.509-2 0a26.6 26.6 0 0 0-2 3.5q2.412.987 3.5-1.5 2.564 8.173 10.5 11 2.542 5.542 8 8 2.542 5.542 8 8l12 14 4 2q2.542 5.542 8 8a35 35 0 0 0 6 8q2.847 1.851 5-1 1.697 2.361.5 5-5.644 3.504-1.5 8-1.068 8.69-7 2-3.34-4.678-5-10-4.835-.07-7-4.5a10.3 10.3 0 0 1-4-1.5q-3.34-4.678-5-10-4.835-.07-7-4.5a10.3 10.3 0 0 1-4-1.5q-3.34-4.678-5-10-4.835-.07-7-4.5a10.3 10.3 0 0 1-4-1.5 40.6 40.6 0 0 0-7-10q-1.428-2.318-1-5h-4q.329-1.763-1-3-1.428 2.318-1 5h-3l2-10a89 89 0 0 1 4.5-12 53.6 53.6 0 0 1 6.5-8" fill="#0bc4d1"/>
        <path d="M130.5 122.5q-.335 5.493-3 10 .335-5.493 3-10" fill="#7a7b7c"/>
        <path d="M211.5 196.5q-.428-2.682 1-5 1.147 1.668 3 2-.72 5.709 3 10 1.197-.686 1-2 1.442 2.647 1 6a8.4 8.4 0 0 0-4 .5 31.7 31.7 0 0 1 12 5q-4.8.152-9 2 11.695 4.311 24 4.5-9.285-.485-18 1a899 899 0 0 1-10 3q.116-1.875 2-2.5a14.7 14.7 0 0 1-5-1.5l2-2-6-2.5q-3.117-5.62-9-8 2.26-1.256 1.5-3.5-4.121-3.381-9.5-4.5 2.26-1.256 1.5-3.5-1.112-1.712-2.5 0-2.506-3.717-7-4.5 2.26-1.256 1.5-3.5-4.121-3.381-9.5-4.5 2.26-1.256 1.5-3.5-1.112-1.712-2.5 0-2.506-3.717-7-4.5 2.84-1.619 1-4-3.85-3.145-9-4 4.04-4.927-2-4a69.8 69.8 0 0 0-13.5-14.5l-1 3a40.2 40.2 0 0 1-2-11q-.575-.834-1.5-1v-2h3q-.428-2.682 1-5 1.329 1.237 1 3h4q-.428 2.682 1 5a40.6 40.6 0 0 1 7 10 10.3 10.3 0 0 0 4 1.5q2.165 4.43 7 4.5 1.66 5.322 5 10a10.3 10.3 0 0 0 4 1.5q2.165 4.43 7 4.5 1.66 5.322 5 10a10.3 10.3 0 0 0 4 1.5q2.165 4.43 7 4.5 1.66 5.322 5 10 5.932 6.69 7-2" fill="#06bed1"/>
        <path d="M91.5 140.5q-4.507 2.665-10 3 4.507-2.665 10-3" fill="#979797"/>
        <path d="M126.5 136.5v8q-1.936.356-3-1 2.375-3.012 3-7" fill="#484848"/>
        <path d="M111.5 140.5q5.376.712 10 3-5.638.157-10-3" fill="#9c9c9c"/>
        <path d="m141.5 127.5-2 10v2a223 223 0 0 0-1 26q-1.918 1.823-3-1 2.59-15.464 3.5-32 .56-2.987 2.5-5" fill="#77cdd8"/>
        <path d="M127.5 133.5v12q-3.873.712-6-2h2q1.064 1.356 3 1v-8q-.356-1.936 1-3" fill="#c9c9c9"/>
        <path d="M139.5 139.5q.925.166 1.5 1a40.2 40.2 0 0 0 2 11l1-3a69.8 69.8 0 0 1 13.5 14.5q6.04-.927 2 4 5.15.855 9 4 1.84 2.381-1 4 4.494.783 7 4.5 1.388-1.712 2.5 0 .76 2.244-1.5 3.5 5.379 1.119 9.5 4.5.76 2.244-1.5 3.5 4.494.783 7 4.5 1.388-1.712 2.5 0 .76 2.244-1.5 3.5 5.379 1.119 9.5 4.5.76 2.244-1.5 3.5 5.883 2.38 9 8l6 2.5-2 2a14.7 14.7 0 0 0 5 1.5q-1.884.625-2 2.5l-5 4q-3.11 1.2-5 4a229 229 0 0 0-6-16q-2.682.428-5-1a55 55 0 0 0-7-7 77 77 0 0 1-4-8q-2.682.428-5-1a55 55 0 0 0-7-7 77 77 0 0 1-4-8q-2.682.428-5-1a59.4 59.4 0 0 1-12-14.5 12.9 12.9 0 0 0-5-.5 6.85 6.85 0 0 1 1-4q-1.237-1.329-3-1-.172-7.688-4-2a19 19 0 0 1 3 5q-1.962 1.689-4 0-.26-13.043 1-26" fill="#08b8d1"/>
        <path d="M75.5 145.5q-.71 2.11-3 2 .71-2.11 3-2" fill="#817d80"/>
        <path d="M276.5 135.5q2.32 7.1 2 15 .226 8.863-2 17h-1q3.333-15.843 1-32" fill="#7ce2d4"/>
        <path d="M90.5 152.5q15.65-2.828 31 2.5 2.736.99 4 3.5a28.8 28.8 0 0 0-8-3q-2.666-1.65-6-2.5-10.488-.75-21-.5" fill="#9fdae7"/>
        <path d="M98.5 158.5q-1.064 1.356-3 1-.393 2.217 1 4a6.54 6.54 0 0 1 3 3 144 144 0 0 1 16 12q.859 2.367 1 4.5 2.92-.803 6 1l-3 1q4.859 3.117 8 7.5v1q-2.333 1.699-5.5 2-12.546-6.466-26.5-4a335 335 0 0 1 5-4l-5-2q3.737-1.561 0-2.5 3.05-1.202 6.5-1.5 4.86 3.349 9.5-1a144 144 0 0 0-16-2 8.44 8.44 0 0 0-.5-4l-7.5-6.5a21.4 21.4 0 0 0-5 0q1.614-2.589.5-5.5a3.94 3.94 0 0 1-2 1 11.8 11.8 0 0 0-5-3q-4.321 4.881-10.5 7a45.3 45.3 0 0 1 10-8q5.993.926 10-3.5l3.5-.5a119 119 0 0 0 9.5 3" fill="#12a0d0"/>
        <path d="M127.5 192.5q-3.141-4.383-8-7.5l3-1q-3.08-1.803-6-1-.141-2.133-1-4.5a144 144 0 0 0-16-12 6.54 6.54 0 0 0-3-3q-1.393-1.783-1-4 1.936.356 3-1 6.523-1.56 13 0-5.767 3.565 1.5 5 .434 2.316 2 4a193 193 0 0 1 4-3q1.114 2.911-.5 5.5a26.6 26.6 0 0 0 2 3.5q.76-4.125 4 .5l-2 1q3.858 4.848 10 6 2.827 5.684 8 9.5-6.565 1.083-13 2" fill="#01a5d2"/>
        <path d="M66.5 151.5q-3.6 5.105-9 8 3.6-5.105 9-8" fill="#b8b7b7"/>
        <path d="M288.5 133.5q1.214 2.688 1.5 6 .75 10.488.5 21 4.328-.46 8 1h-9a328 328 0 0 0-1-28" fill="#848486"/>
        <path d="M95.5 191.5v1h-3q-.843-4.19-4-7a4.46 4.46 0 0 1 2-1.5 131 131 0 0 0-11-8l2-1q-4.072-1.312-4-5.5a8.4 8.4 0 0 0-4 .5q-.047 2.581-2 5.5-7.203-9.361-10.5 3a18.5 18.5 0 0 1-3.5 2q2.877-7.265 8-13 6.179-2.119 10.5-7a11.8 11.8 0 0 1 5 3 3.94 3.94 0 0 0 2-1q1.114 2.911-.5 5.5a21.4 21.4 0 0 1 5 0l7.5 6.5a8.44 8.44 0 0 1 .5 4 144 144 0 0 1 16 2q-4.64 4.349-9.5 1-3.45.298-6.5 1.5 3.737.939 0 2.5l5 2a335 335 0 0 0-5 4" fill="#0d98d0"/>
        <path d="M55.5 161.5q-.357 2.856-3 4 .357-2.856 3-4" fill="#858587"/>
        <path d="M117.5 155.5a28.8 28.8 0 0 1 8 3 47.8 47.8 0 0 0 10 6q1.082 2.823 3 1 2.038 1.689 4 0a19 19 0 0 0-3-5q3.828-5.688 4 2 1.763-.329 3 1a6.85 6.85 0 0 0-1 4 12.9 12.9 0 0 1 5 .5 59.4 59.4 0 0 0 12 14.5q2.318 1.428 5 1a77 77 0 0 0 4 8 55 55 0 0 1 7 7q2.318 1.428 5 1a77 77 0 0 0 4 8 55 55 0 0 1 7 7q2.318 1.428 5 1a229 229 0 0 1 6 16 35 35 0 0 0-6 8 41.5 41.5 0 0 1 1-8q-5.586-.675-6.5 5 1.126-4.801 1-9-2.337-1.268-3 2-1.065-2.21-3.5-2-.579-4.855-4.5-8a8.4 8.4 0 0 1-.5-4q-1.983-.255-3.5 1-2-4-6-6-.684-1.866 1.5-2.5a14.7 14.7 0 0 1-5-1.5q-5.4-7.566-13-10.5a11.1 11.1 0 0 1 2-3.5l-2-1q-2.98 3.16-6 .5a6.8 6.8 0 0 0 3-1.5l-14-14q-2.318-1.428-5-1-.51-3.966 2-7-2.318-1.428-5-1v3h-3q.329-1.763-1-3l-5-2q-1.529-6.278-8-6.5 2.21-1.065 2-3.5" fill="#07b1d1"/>
        <path d="M315.5 165.5q2.29-.11 3 2-2.29.11-3-2" fill="#606060"/>
        <path d="M52.5 165.5q.11 2.29-2 3-.11-2.29 2-3" fill="#858283"/>
        <path d="M320.5 168.5q2.29-.11 3 2-2.29.11-3-2" fill="#515352"/>
        <path d="M50.5 168.5q.11 2.29-2 3-.11-2.29 2-3" fill="#6e6e6b"/>
        <path d="M313.5 177.5q-13.637-7.018-29-4 1.771-2.351 5-2.5 7.33-1.318 14 1.5 2.972.094 5-2l2 3a3.65 3.65 0 0 0 1.5-1q1.514 2.288 1.5 5" fill="#ddfbf8"/>
        <path d="M323.5 170.5q3.884 1.379 6 5-3.884-1.379-6-5" fill="#4d4d4d"/>
        <path d="M92.5 192.5q-5.406 2.682-8 8h-1q.255-1.983-1-3.5 2.685-.623 4-3a20.6 20.6 0 0 1-6-2q3.604-2.207-.5-4.5l-1 1a19.4 19.4 0 0 1-5.5-7.5q-2.708-2.162-6-.5.19-2.55 2-4.5-.897-1.952-3-2.5a177 177 0 0 0-2 9q4.094 2.8-1 3a32.4 32.4 0 0 0-.5-8q-1 3-4 4a52 52 0 0 1-1.5 10 4.45 4.45 0 0 1-1.5-2q-1 9 0 18 .315 2.337 1.5 4v4l-2-2q-2.925-12.29-1.5-25a115 115 0 0 1 3.5-8 18.5 18.5 0 0 0 3.5-2q3.297-12.361 10.5-3 1.953-2.919 2-5.5a8.4 8.4 0 0 1 4-.5q-.072 4.188 4 5.5l-2 1a131 131 0 0 1 11 8 4.46 4.46 0 0 0-2 1.5q3.157 2.81 4 7" fill="#2194d0"/>
        <path d="M275.5 167.5h1q-.765 4.332 2 7-1.142 1.337-3 2-1.423-3.939 0-8z" fill="#bbf5f2"/>
        <path d="M283.5 195.5q9.212 6.708 14 17 .322 2.519-2 3-3.694-5.7-10-8v-1q-1.984-3.279-6-4.5-9.77-1.23-19 .5l-3 2h-6a85 85 0 0 0-.5-13q-.575-.834-1.5-1a42 42 0 0 0-10-7q-6.773-1.968-14 0a14.8 14.8 0 0 0-4.5 3q-1-2 0-4 2.222-1.456 2.5-4l1-2q25.75-10.706 37 14.5 11.591-.373 22 4.5" fill="#f3fdfc"/>
        <path d="M286.5 174.5q14.259-1.52 27 5a14.7 14.7 0 0 0 6 4q5.385 2.422 7 8a130 130 0 0 1 3 20 130 130 0 0 0-1.5 7q-.574-.834-1.5-1a18.5 18.5 0 0 0-.5-6q-1.256-2.26-3.5-1.5l1 1a15.3 15.3 0 0 0-1.5 4.5l-1-11q-1.787-4.551-6.5-5 .059-2.788-2.5-4l-1 2q-1.5-3.5-5-5a3.65 3.65 0 0 1-1.5 1q-.713-5.139-3-9.5a39.5 39.5 0 0 0-6-4.5 3.65 3.65 0 0 0-1.5 1q-2.313-5.088-7.5-6" fill="#0befd1"/>
        <path d="M286.5 174.5q5.187.912 7.5 6a3.65 3.65 0 0 1 1.5-1 39.5 39.5 0 0 1 6 4.5q2.287 4.361 3 9.5a3.65 3.65 0 0 0 1.5-1q3.5 1.5 5 5l1-2q2.559 1.212 2.5 4 4.713.449 6.5 5l1 11a15.3 15.3 0 0 1 1.5-4.5l-1-1q2.244-.76 3.5 1.5.743 2.96.5 6a548 548 0 0 0-2.5 9 32.6 32.6 0 0 1-3-7l-1 2a39.5 39.5 0 0 0-10-11 4.93 4.93 0 0 1-.5-3q-3.138-.091-4.5-3l-1-7q-1.303 4.341-5.5 3.5-1.712-1.112 0-2.5a92 92 0 0 1-9-6.5q1.255-1.517 1-3.5-4.575.865-6-3.5a7.3 7.3 0 0 1 3-2q-3.735-.743-4.5-4.5a7.3 7.3 0 0 0-2 3l-1-2q-3.67 3.374-7.5.5a129 129 0 0 0 14-5.5" fill="#02ead1"/>
        <path d="M331.5 179.5q3.13 1.627 4 5-3.13-1.627-4-5" fill="#bbbaba"/>
        <path d="M63.5 185.5q.128 1.494-1 2.5a20.5 20.5 0 0 0 4.5 2.5q.216 5.468 5.5 7a160 160 0 0 1 6 7.5q1.866.684 2.5-1.5l6 2q1.032 1.247-.5 2-2.397-1.477-5-.5a85.6 85.6 0 0 1 15 16q-3.546 3.759-5 8.5 0 1-1 1-1.96-1.953 0-4-1.16-1.817-2.5 0a69.4 69.4 0 0 0-6.5-8.5 23 23 0 0 0-5-2 255 255 0 0 1-12-15.5 14.7 14.7 0 0 0-1.5 5q-.806-3.87-3.5-6.5a9.3 9.3 0 0 1 2-2.5 39 39 0 0 1-1.5-7 56.4 56.4 0 0 0-2.5 20q-1.185-1.663-1.5-4-1-9 0-18a4.45 4.45 0 0 0 1.5 2 52 52 0 0 0 1.5-10q3-1 4-4 .746 3.97.5 8" fill="#0186d1"/>
        <path d="M335.5 184.5q2.11.71 2 3-2.11-.71-2-3" fill="#828380"/>
        <path d="M223.5 178.5q-.278 2.544-2.5 4-1 2 0 4a14.8 14.8 0 0 1 4.5-3q7.227-1.968 14 0-6.655-.435-13 1.5a132 132 0 0 0-5 6.5q-2.517 4.578-2 10 .197 1.314-1 2-3.72-4.291-3-10 1.53-7.578 6-14z" fill="#ddfafa"/>
        <path d="M274.5 220.5a259 259 0 0 0-31-1q-12.305-.189-24-4.5 4.2-1.848 9-2a31.7 31.7 0 0 0-12-5 8.4 8.4 0 0 1 4-.5q.442-3.353-1-6-.517-5.422 2-10 3.403-3.948 7 0a4.93 4.93 0 0 0 2.5-1 93 93 0 0 0 7.5 9q1.388 1.712 2.5 0 .834 5.3 5.5 8 2.966-9.537 3 0a4.93 4.93 0 0 1 3 .5l-1 1-11 1q6.1 3.692 13 2 2.1 2.157 5 2.5v3a4.93 4.93 0 0 0-3 .5q10.119-.197 19 2.5" fill="#08c8d0"/>
        <path d="M337.5 187.5q3.127 3.276 3 8-3.127-3.276-3-8" fill="#9b9a9b"/>
        <path d="M95.5 192.5q11.38-.858 22 2.5a47 47 0 0 0 3.5 5.5 3.65 3.65 0 0 1 1.5-1q2.089 2.044 5 2.5 1.526 1.574.5 3.5-2.753 1.754-3.5 5-1.238 1.329-3 1l-2-1-6-6q-.481-2.322-3-2 .255-1.983-1-3.5a100 100 0 0 1-14-1.5 99 99 0 0 1 0-5" fill="#f9fcfc"/>
        <path d="M90.5 152.5q10.512-.25 21 .5 3.334.85 6 2.5.21 2.435-2 3.5 6.471.222 8 6.5l5 2q1.329 1.237 1 3h3v-3q2.682-.428 5 1-2.51 3.034-2 7 2.682-.428 5 1l14 14a6.8 6.8 0 0 1-3 1.5q3.02 2.66 6-.5l2 1a11.1 11.1 0 0 0-2 3.5q7.6 2.934 13 10.5a14.7 14.7 0 0 0 5 1.5q-2.184.634-1.5 2.5 4 2 6 6 1.517-1.255 3.5-1a8.4 8.4 0 0 0 .5 4q3.921 3.145 4.5 8 2.435-.21 3.5 2 .663-3.268 3-2 .126 4.199-1 9 .914-5.675 6.5-5a41.5 41.5 0 0 0-1 8 5.73 5.73 0 0 0-1 3 19.3 19.3 0 0 0-4.5 3 13 13 0 0 0-5.5-1 127 127 0 0 0-4-12q-3.174-1.267-6-5 1.237-1.329 3-1v-3a13.14 13.14 0 0 0-6 2q-3.505-2.015-6-5h4q.255-1.983-1-3.5a73 73 0 0 1-16-2.5 63 63 0 0 0 10-2.5 72.5 72.5 0 0 1-11-4 8.4 8.4 0 0 1 4-.5v-4a419 419 0 0 1-10 4 7.3 7.3 0 0 0-3.5-2q-4.03.788-8.5 0v-3a19.5 19.5 0 0 0-7 3 14.7 14.7 0 0 1 3-3.5 45.5 45.5 0 0 1 15 .5q-2.433-5.434-8-8h-2q-5.193-1.473-11-1v-1q6.435-.917 13-2-5.173-3.816-8-9.5-6.142-1.152-10-6l2-1q-3.24-4.625-4-.5a26.6 26.6 0 0 1-2-3.5q1.614-2.589.5-5.5a193 193 0 0 0-4 3q-1.565-1.684-2-4-7.267-1.435-1.5-5-6.477-1.56-13 0a119 119 0 0 1-9.5-3l-3.5.5q-4.007 4.426-10 3.5.68-1.437 2-2.5a174 174 0 0 0 13-4.5" fill="#0aabd1"/>
        <path d="M92.5 192.5h3a99 99 0 0 0 0 5q6.948 1.242 14 1.5 1.255 1.517 1 3.5 2.519-.322 3 2a43.3 43.3 0 0 0-10-3 114.3 114.3 0 0 0-19-1q2.594-5.318 8-8" fill="#def6fb"/>
        <path d="M127.5 193.5q5.807-.473 11 1a50.5 50.5 0 0 0-10 .5q-2.84 1.619-1 4 6.915 2.595 14 0 1.622-2.567-1-4.5 5.567 2.566 8 8a45.5 45.5 0 0 0-15-.5 14.7 14.7 0 0 0-3 3.5q-4.772 2.539-5 8-2.82.406-4-2 1.762.329 3-1 .747-3.246 3.5-5 1.026-1.926-.5-3.5-2.911-.456-5-2.5a3.65 3.65 0 0 0-1.5 1 47 47 0 0 1-3.5-5.5q-10.62-3.358-22-2.5v-1q13.954-2.466 26.5 4 3.167-.301 5.5-2" fill="#d9f5fa"/>
        <path d="M138.5 194.5h2q2.622 1.933 1 4.5-7.085 2.595-14 0-1.84-2.381 1-4a50.5 50.5 0 0 1 10-.5" fill="#fafdfc"/>
        <path d="M83.5 200.5h1a114.3 114.3 0 0 1 19 1q-7.792-.481-15 1l-6 1q-.356-1.937 1-3" fill="#5cb2d5"/>
        <path d="M340.5 195.5q2.361 2.403 2 6-2.361-2.403-2-6" fill="#727272"/>
        <path d="M260.5 202.5q9.23-1.73 19-.5 4.016 1.221 6 4.5-11.927-5.04-25-4" fill="#ccfdfb"/>
        <path d="M249.5 190.5q.925.166 1.5 1 .749 6.481.5 13h4q-2.128 1.426-5 1a67.3 67.3 0 0 0-1-15" fill="#b0faf9"/>
        <path d="M260.5 202.5q13.073-1.04 25 4v1a18.5 18.5 0 0 0-6 .5q5.308 4.072 12 4.5v3a53.5 53.5 0 0 1-10-2l-2 1q4.458 3.484 10 4a6.85 6.85 0 0 1-1 4q4.16 3.375 9 2a4.46 4.46 0 0 0-2-1.5 9.5 9.5 0 0 0 2.5-1.5q2.742 2.854-.5 5.5 2 2 0 4 4.946 2.195 6 7.5 9.861 1.344 0 3.5 4.612.209 9-1.5a8.4 8.4 0 0 1 .5-4q2.034 1.32 4.5 1l-1 2-11 5.5q-2.5 1-5 0-2.943-9.152-10-15.5v-3a127 127 0 0 1-13-6.5 4.46 4.46 0 0 0 2-1.5 10.3 10.3 0 0 0-4-1.5q1.81-1.527-1-1.5-1.721.477-2.5 2-2.777.014-5.5-2.5 2.686-.623 4-3a32.6 32.6 0 0 1-10-4l2-1a19.2 19.2 0 0 0-5-2.5z" fill="#1ed6d0"/>
        <path d="M83.5 200.5q-1.356 1.063-1 3l6-1a57.2 57.2 0 0 1 15 1 34.3 34.3 0 0 1-8 1.5q1.743 1.24 3.5 2.5 2.367-1.57 4.5 0-3.65 2.33-8 2-.329 1.763 1 3a9.1 9.1 0 0 1 5-1q.305 2.835-2 4.5 1.5 1 3 0 4.16-5.091 7 1-4.462 5.983-12 6.5v3l-6 5q1.454-4.741 5-8.5a85.6 85.6 0 0 0-15-16q2.603-.977 5 .5 1.532-.753.5-2l-6-2q-.634 2.184-2.5 1.5a160 160 0 0 0-6-7.5q-5.284-1.532-5.5-7a20.5 20.5 0 0 1-4.5-2.5q1.128-1.006 1-2.5 5.094-.2 1-3a177 177 0 0 1 2-9q2.103.548 3 2.5-1.81 1.95-2 4.5 3.292-1.662 6 .5a19.4 19.4 0 0 0 5.5 7.5l1-1q4.104 2.293.5 4.5a20.6 20.6 0 0 0 6 2q-1.315 2.377-4 3 1.255 1.517 1 3.5" fill="#048cd1"/>
        <path d="M239.5 183.5a42 42 0 0 1 10 7 67.3 67.3 0 0 1 1 15q2.872.426 5-1h2a19.2 19.2 0 0 1 5 2.5l-2 1a32.6 32.6 0 0 0 10 4q-1.314 2.377-4 3 2.723 2.514 5.5 2.5.779-1.523 2.5-2 2.81-.027 1 1.5 2.157.328 4 1.5a4.46 4.46 0 0 1-2 1.5 127 127 0 0 0 13 6.5v3a25.8 25.8 0 0 0-8-4q-2.775-3.108-7-4 0-1-1-1-8.881-2.697-19-2.5a4.93 4.93 0 0 1 3-.5v-3q-2.9-.343-5-2.5-6.9 1.692-13-2l11-1 1-1a4.93 4.93 0 0 0-3-.5q-.034-9.537-3 0-4.666-2.7-5.5-8-1.112 1.712-2.5 0a93 93 0 0 1-7.5-9 4.93 4.93 0 0 1-2.5 1q-3.597-3.948-7 0a132 132 0 0 1 5-6.5 36.1 36.1 0 0 1 13-1.5" fill="#1fd1d0"/>
        <path d="M169.5 220.5a452 452 0 0 0-26-1q-3.203-2.804-8-2a4.93 4.93 0 0 0-.5-3q-3.342 2.42-7.5 2 .447-4.254-2-1.5-5.714 1.55-6-4.5l2 1q1.18 2.406 4 2 .228-5.461 5-8a19.5 19.5 0 0 1 7-3v3q4.47.788 8.5 0a7.3 7.3 0 0 1 3.5 2 419 419 0 0 0 10-4v4a8.4 8.4 0 0 0-4 .5 72.5 72.5 0 0 0 11 4 63 63 0 0 1-10 2.5 73 73 0 0 0 16 2.5q1.255 1.517 1 3.5z" fill="#0aa1d1"/>
        <path d="M188.5 89.5q2.235 5.088 8 4 .127 3.644 3 6a7154 7154 0 0 1 71.5 72 6.8 6.8 0 0 1 1.5-3q1.54 1.936 3 0-1.423 4.061 0 8 1.858-.663 3-2l6-1q15.363-3.018 29 4a2.43 2.43 0 0 1 2 .5 37 37 0 0 0 4 5.5 14.7 14.7 0 0 1-6-4q-12.741-6.52-27-5a129 129 0 0 1-14 5.5q3.83 2.874 7.5-.5l1 2a7.3 7.3 0 0 1 2-3q.765 3.757 4.5 4.5a7.3 7.3 0 0 0-3 2q1.425 4.365 6 3.5.255 1.983-1 3.5a92 92 0 0 0 9 6.5q-1.712 1.388 0 2.5 4.197.841 5.5-3.5l1 7q1.362 2.909 4.5 3a4.93 4.93 0 0 0 .5 3 39.5 39.5 0 0 1 10 11l1-2a32.6 32.6 0 0 0 3 7 548 548 0 0 1 2.5-9q.926.166 1.5 1 .654-3.521 1.5-7a130 130 0 0 0-3-20q6.538 10.952 4.5 24a153 153 0 0 1-6.5 16l-2 1q-1.437-.679-2.5-2-4.321 2.292-7-2l-1 1q-2.1-4.269-4.5-1l-1-1 2-3a9.86 9.86 0 0 0-6-1q-.231-3.705-3-6-.444-2.855-2-5-4.788-10.292-14-17v-3a12.9 12.9 0 0 1-5-.5l1-1a14.7 14.7 0 0 1-5-1.5q2.259-1.87 4.5 0 .648-1.65-1.5-2a39.8 39.8 0 0 0-11-.5q-.531-2.439 0-5.5a4.93 4.93 0 0 1-3-.5q-.982-2.23-3-3.5-2.39 9.824-3 0-1.763.329-3-1 1.914-1.718 4 0 1.863-5.382-3.5-3-2.407-5.664-8.5-6 .129-1.494-1-2.5-4.307-.176-8-2 1.423-.926 2.5.5 3.353-2.553 7.5-3-.393 2.217 1 4a22.5 22.5 0 0 1 3-4 21.1 21.1 0 0 0-9-1q.329-1.763-1-3a51.3 51.3 0 0 1-12-12q-1.237-1.329-3-1 .329-1.763-1-3a51.3 51.3 0 0 1-12-12q-1.237-1.329-3-1-2.585-6.081-9-8-1.245-6.896-8-8a4.93 4.93 0 0 0-.5-3A644 644 0 0 0 178.5 97a3.65 3.65 0 0 0 1-1.5q-1.783-1.393-4-1a4.93 4.93 0 0 1 .5-3q6.841 2.49 12.5-2" fill="#17e3d1"/>
        <path d="M88.5 202.5q7.208-1.481 15-1a43.3 43.3 0 0 1 10 3l6 6q.286 6.05 6 4.5 2.447-2.754 2 1.5 4.158.42 7.5-2 .724 1.422.5 3 4.797-.804 8 2-16.27-.492-32 1a13.94 13.94 0 0 0-6 3q-4.672-.159-8 3v-3q7.538-.517 12-6.5-2.84-6.091-7-1-1.5 1-3 0 2.305-1.665 2-4.5a9.1 9.1 0 0 0-5 1q-1.329-1.237-1-3 4.35.33 8-2-2.133-1.57-4.5 0-1.757-1.26-3.5-2.5a34.3 34.3 0 0 0 8-1.5 57.2 57.2 0 0 0-15-1" fill="#1194cd"/>
        <path d="m55.5 213.5 2 2 3 8q-4.814-3.628-5-10" fill="#b8d8ef"/>
        <path d="M297.5 212.5q1.556 2.145 2 5a4.93 4.93 0 0 1-.5 3q-2.703-1.934-3.5-5 2.322-.481 2-3" fill="#a6f9f5"/>
        <path d="M225.5 220.5q8.715-1.485 18-1a259 259 0 0 1 31 1q1 0 1 1a685 685 0 0 0-50-1" fill="#6dc9ce"/>
        <path d="M111.5 220.5q23.263-.495 46 1a398 398 0 0 0-52 2 13.94 13.94 0 0 1 6-3" fill="#d8f6fd"/>
        <path d="M225.5 220.5a685 685 0 0 1 50 1q4.225.892 7 4a184 184 0 0 0-13-2.5 1458 1458 0 0 0-45.5-.5 70 70 0 0 1-13.5 5l5-4a899 899 0 0 0 10-3" fill="#e6fdfd"/>
        <path d="M111.5 220.5q15.73-1.492 32-1 13.017.126 26 1 2.495 2.985 6 5a13.14 13.14 0 0 1 6-2v3q-1.763-.329-3 1 2.826 3.733 6 5a127 127 0 0 1 4 12 13 13 0 0 1 5.5 1 19.3 19.3 0 0 1 4.5-3 20.7 20.7 0 0 0-1 5 41 41 0 0 1-9-.5q-4.49-14.003-17-22a37.9 37.9 0 0 0-14-3.5 530 530 0 0 0-46-1" fill="#46acc9"/>
        <path d="M285.5 207.5q6.306 2.3 10 8 .797 3.066 3.5 5a4.93 4.93 0 0 0 .5-3q2.769 2.295 3 6a9.86 9.86 0 0 1 6 1l-2 3 1 1q2.4-3.269 4.5 1l1-1q2.679 4.292 7 2 1.063 1.321 2.5 2-2 3-5 5-2.466.32-4.5-1a8.4 8.4 0 0 0-.5 4q-4.388 1.709-9 1.5 9.861-2.156 0-3.5-1.054-5.305-6-7.5 2-2 0-4 3.242-2.646.5-5.5a9.5 9.5 0 0 1-2.5 1.5 4.46 4.46 0 0 1 2 1.5q-4.84 1.375-9-2a6.85 6.85 0 0 0 1-4q-5.542-.516-10-4l2-1a53.5 53.5 0 0 0 10 2v-3q-6.692-.428-12-4.5a18.5 18.5 0 0 1 6-.5" fill="#10dcd1"/>
        <path d="M342.5 219.5q.361 3.597-2 6-.361-3.597 2-6" fill="#434343"/>
        <path d="M90.5 232.5q-1.495.129-2.5-1a360 360 0 0 1-5.5 9 48.4 48.4 0 0 0-9-3v-1a19.5 19.5 0 0 1-3-7h-3v-3a6.85 6.85 0 0 1-4-1 53.6 53.6 0 0 0-3.5-8q-1.062-1.321-2.5-2v-4a56.4 56.4 0 0 1 2.5-20 39 39 0 0 0 1.5 7 9.3 9.3 0 0 0-2 2.5q2.694 2.63 3.5 6.5a14.7 14.7 0 0 1 1.5-5 255 255 0 0 0 12 15.5 23 23 0 0 1 5 2 69.4 69.4 0 0 1 6.5 8.5q1.34-1.817 2.5 0-1.96 2.047 0 4" fill="#027ed2"/>
        <path d="M44.5 217.5a3320 3320 0 0 1 7 14q-5.75-5.667-7-14" fill="#656464"/>
        <path d="M57.5 215.5q1.438.679 2.5 2a53.6 53.6 0 0 1 3.5 8 6.85 6.85 0 0 0 4 1v3h3a19.5 19.5 0 0 0 3 7 10.1 10.1 0 0 1-4-1.5 136 136 0 0 1-9-11.5z" fill="#2a80c4"/>
        <path d="M340.5 225.5q-.618 4.953-4 8 1.169-4.567 4-8" fill="#646562"/>
        <path d="M271.5 232.5a603 603 0 0 0-48 1q.166-.925 1-1.5 23.758-1.242 47 .5" fill="#989898"/>
        <path d="M271.5 232.5q3.297-.57 5 2-2.855-.444-5-2" fill="#a1a09e"/>
        <path d="M170.5 239.5q-.11 2.29 2 3 1 0 1 1-.11 2.29 2 3 7.05 18.944-8 32.5-3.477 2.989-8 3.5a711 711 0 0 1-51-1q-2.802-1.144-5-3-2-3-5-5-1.65-1.657-2-4-.444-2.855-2-5-.25-7.517.5-15 .315-2.337 1.5-4 2.643-1.144 3-4 4.176-6.837 12-8.5 24-1 48 0 6.036 2.511 11 6.5" fill="#030404"/>
        <path d="M271.5 232.5q2.145 1.556 5 2 3.85 1.826 7 5 .357 2.856 3 4 1.258.513 1 2 2.483 8.769 2 18a54 54 0 0 1-2 8q-5.575 9.083-16 11-23.005.25-46-.5a10.1 10.1 0 0 0-6-1.5 19 19 0 0 1-5-3q-.87-3.373-4-5-.72-4.415-3-8a97 97 0 0 1 1-16q4-11 15-15a603 603 0 0 1 48-1" fill="#030303"/>
        <path d="M324.5 231.5q-2.5 5.5-8 8l1-2q3-2 5-5z" fill="#bcf5f3"/>
        <path d="M336.5 233.5q.11 2.29-2 3-.11-2.29 2-3" fill="#878987"/>
        <path d="M90.5 232.5a47.5 47.5 0 0 0-5 10q-7.251.885-12-5a48.4 48.4 0 0 1 9 3 360 360 0 0 0 5.5-9q1.005 1.129 2.5 1" fill="#468ec9"/>
        <path d="M258.5 245.5q-2.148-4.15 1-8-6.293-2.533-11 2h-1v-3a96 96 0 0 0 13-2.5 3.94 3.94 0 0 1 1 2 22.4 22.4 0 0 0-3 9.5" fill="#091b21"/>
        <path d="M276.5 234.5q5.605-.389 7 5-3.15-3.174-7-5" fill="#acafb0"/>
        <path d="M141.5 236.5h6q.356 1.937-1 3-.705-1.79-3-2-3.29.328-6 2 1.144-2.643 4-3" fill="#0f5470"/>
        <path d="M333.5 238.5q-.357 2.856-3 4 .357-2.856 3-4" fill="#4d4e4d"/>
        <path d="M141.5 236.5q3.593-1.971 7.5 0a43.4 43.4 0 0 1-2.5 9q-2-3 0-6 1.356-1.063 1-3z" fill="#082435"/>
        <path d="M170.5 239.5q2.11.71 2 3-2.11-.71-2-3" fill="#505050"/>
        <path d="M283.5 239.5q2.643 1.144 3 4-2.643-1.144-3-4" fill="#515151"/>
        <path d="M99.5 241.5q-.357 2.856-3 4 .357-2.856 3-4" fill="#606162"/>
        <path d="M173.5 243.5q2.11.71 2 3-2.11-.71-2-3" fill="#6e6e6e"/>
        <path d="M135.5 241.5q-2.628 5.59-2 12-1.712-4.71-.5-10 1.063-1.321 2.5-2" fill="#02304c"/>
        <path d="M158.5 251.5q.428-2.682-1-5-3.527 2.594-8 2-1.5-.5-2-2 2.2.59 4.5 1 3.405-2.04 7.5-2 .442 3.353-1 6" fill="#021d32"/>
        <path d="M247.5 239.5h1v2q-.925.166-1.5 1a47 47 0 0 0-1.5 11q-2.401-7.36 2-14" fill="#127385"/>
        <path d="M258.5 245.5q1.116 2.93 4.5 3 3.012.29 4.5-2 1.724.436 2 2.5a48 48 0 0 0-1 5.5h-1v-5a21.1 21.1 0 0 1-9-1q-1.321-2.206-4-2.5 1.932-3.942-2-6.5l-4 2v-2q4.707-4.533 11-2-3.148 3.85-1 8" fill="#16a5ad"/>
        <path d="M67.5 247.5q4.073 2.435 9 2-.1 2.188 1 4-6.008-1.497-10-6" fill="#cfccc9"/>
        <path d="M146.5 239.5q-2 3 0 6 1 0 1 1 .5 1.5 2 2 3.161 1.452 7 1v6a81 81 0 0 0-12 5q-3.914.088-7-2a22.8 22.8 0 0 1-4-5q-.628-6.41 2-12 .5-1.5 2-2 2.71-1.672 6-2 2.295.21 3 2" fill="#078ecb"/>
        <path d="M267.5 246.5q1.063-1.356 3-1a32.5 32.5 0 0 1-.5 8q-.574.834-1.5 1a48 48 0 0 1 1-5.5q-.276-2.064-2-2.5" fill="#073e43"/>
        <path d="M317.5 252.5q-2.3 2.618-6 3 2.3-2.618 6-3" fill="#575759"/>
        <path d="M287.5 245.5q3.723 3.004 3 8 .469 5.313-1 10 .483-9.231-2-18" fill="#444545"/>
        <path d="M77.5 253.5a9.1 9.1 0 0 1 5 1 36.9 36.9 0 0 1 1 12q-1.473-5.193-1-11-3.08.147-5-2" fill="#c9c8c8"/>
        <path d="M245.5 253.5q5.511 1.768 9 6.5 3.465.745 7 .5-3.672 1.46-8 1-6.5-1.5-8-8" fill="#0f95a2"/>
        <path d="M267.5 254.5a5.73 5.73 0 0 0-1 3 19 19 0 0 0-5 3 25 25 0 0 1-7-.5q-3.489-4.732-9-6.5a47 47 0 0 1 1.5-11q.575-.834 1.5-1l4-2q3.932 2.558 2 6.5 2.679.294 4 2.5a21.1 21.1 0 0 0 9 1z" fill="#07bece"/>
        <path d="M267.5 254.5h1q.11 2.29-2 3a5.73 5.73 0 0 1 1-3" fill="#0b5b67"/>
        <path d="M290.5 253.5q1.715 5.213.5 11-.783 4.172-3.5 7a54 54 0 0 0 2-8q1.469-4.687 1-10" fill="#a09fa0"/>
        <path d="M158.5 251.5q-1.076 7.83-9 9.5a25.2 25.2 0 0 1-10 0q-1.321-1.062-2-2.5 3.086 2.088 7 2 5.7-2.942 12-5v-6q-3.839.452-7-1 4.473.594 8-2 1.428 2.318 1 5" fill="#116f96"/>
        <path d="M208.5 248.5a97 97 0 0 0-1 16q-1.722-6.722-.5-14 .417-1.374 1.5-2" fill="#a4a6a5"/>
        <path d="M266.5 257.5q-1.011 2.287-3 4-5.22 1.959-10 0 4.328.46 8-1a19 19 0 0 1 5-3" fill="#072a31"/>
        <path d="M94.5 264.5q1.556 2.145 2 5-2.57-1.703-2-5" fill="#9c9c9c"/>
        <path d="M83.5 268.5q2.67 2.235 2 6-1.857-2.571-2-6" fill="#afafaf"/>
        <path d="M196.5 268.5q1.556 2.145 2 5-2.57-1.703-2-5" fill="#656565"/>
        <path d="M188.5 269.5q-.163 5.099-4 8 1.458-4.405 4-8" fill="#383838"/>
        <path d="M301.5 269.5q.501 4.486-3 7 .653-3.986 3-7" fill="#454545"/>
        <path d="M210.5 272.5q3.13 1.627 4 5-3.13-1.627-4-5" fill="#ababab"/>
        <path d="M98.5 273.5q3 2 5 5-4-1-5-5" fill="#8f8f8f"/>
        <path d="M85.5 275.5q2.11.71 2 3-2.11-.71-2-3" fill="#575757"/>
        <path d="M298.5 276.5q.11 2.29-2 3-.11-2.29 2-3" fill="#6b6b6b"/>
        <path d="M296.5 279.5q.11 2.29-2 3-.11-2.29 2-3" fill="#626262"/>
        <path d="M108.5 281.5a711 711 0 0 0 51 1q-23.742 1.742-48 .5-1.856-.348-3-1.5" fill="#313131"/>
        <path d="M219.5 280.5a10.1 10.1 0 0 1 6 1.5q22.995.75 46 .5-23.742 1.742-48 .5-2.35-.913-4-2.5" fill="#303030"/>
        <path d="M94.5 286.5q3.373.87 5 4-3.373-.87-5-4" fill="#9a9a9a"/>
        <path d="M213.5 290.5q2.29-.11 3 2-2.29.11-3-2" fill="#898989"/>
        <path d="M105.5 293.5a883 883 0 0 0 54 1v1q-24.505.25-49-.5-2.823-.297-5-1.5" fill="#c7c7c7"/>
        <path d="M167.5 292.5q-3.176 3.232-8 3v-1a54 54 0 0 0 8-2" fill="#3b3b3b"/>
        <path d="M216.5 292.5q3.64.035 7 1.5 24.995.75 50 .5-25.242 1.742-51 .5-3.335-.85-6-2.5" fill="#bfbfbf"/>
    </g>
</svg>
